<mxfile host="65bd71144e">
    <diagram name="第 1 页" id="gQ4dgG77jSIiI0UAG26R">
        <mxGraphModel dx="1194" dy="819" grid="1" gridSize="10" guides="1" tooltips="1" connect="1" arrows="1" fold="1" page="1" pageScale="1" pageWidth="827" pageHeight="1169" background="#ffffff" math="0" shadow="0">
            <root>
                <mxCell id="0"/>
                <mxCell id="1" parent="0"/>
                <mxCell id="UJ6no4YONDaqZgK9Tx4c-1" value="riscv-opcodes" style="rounded=0;whiteSpace=wrap;html=1;" parent="1" vertex="1">
                    <mxGeometry x="190" y="520" width="90" height="50" as="geometry"/>
                </mxCell>
                <mxCell id="UJ6no4YONDaqZgK9Tx4c-18" style="edgeStyle=orthogonalEdgeStyle;rounded=0;orthogonalLoop=1;jettySize=auto;html=1;entryX=0;entryY=0.5;entryDx=0;entryDy=0;" parent="1" source="UJ6no4YONDaqZgK9Tx4c-2" target="UJ6no4YONDaqZgK9Tx4c-16" edge="1">
                    <mxGeometry relative="1" as="geometry"/>
                </mxCell>
                <mxCell id="UJ6no4YONDaqZgK9Tx4c-2" value="rvdecoderdb" style="rounded=0;whiteSpace=wrap;html=1;" parent="1" vertex="1">
                    <mxGeometry x="340" y="520" width="90" height="50" as="geometry"/>
                </mxCell>
                <mxCell id="UJ6no4YONDaqZgK9Tx4c-3" value="" style="endArrow=classic;html=1;rounded=0;exitX=1;exitY=0.5;exitDx=0;exitDy=0;entryX=0;entryY=0.5;entryDx=0;entryDy=0;" parent="1" source="UJ6no4YONDaqZgK9Tx4c-1" target="UJ6no4YONDaqZgK9Tx4c-2" edge="1">
                    <mxGeometry width="50" height="50" relative="1" as="geometry">
                        <mxPoint x="460" y="550" as="sourcePoint"/>
                        <mxPoint x="510" y="500" as="targetPoint"/>
                    </mxGeometry>
                </mxCell>
                <mxCell id="UJ6no4YONDaqZgK9Tx4c-4" value="rv_i" style="rounded=0;whiteSpace=wrap;html=1;" parent="1" vertex="1">
                    <mxGeometry x="70" y="380" width="60" height="20" as="geometry"/>
                </mxCell>
                <mxCell id="UJ6no4YONDaqZgK9Tx4c-5" value="rv32_i" style="rounded=0;whiteSpace=wrap;html=1;" parent="1" vertex="1">
                    <mxGeometry x="70" y="430" width="60" height="20" as="geometry"/>
                </mxCell>
                <mxCell id="UJ6no4YONDaqZgK9Tx4c-6" value="rv_i" style="rounded=0;whiteSpace=wrap;html=1;" parent="1" vertex="1">
                    <mxGeometry x="70" y="480" width="60" height="20" as="geometry"/>
                </mxCell>
                <mxCell id="UJ6no4YONDaqZgK9Tx4c-8" value="..." style="rounded=0;whiteSpace=wrap;html=1;" parent="1" vertex="1">
                    <mxGeometry x="70" y="530" width="60" height="240" as="geometry"/>
                </mxCell>
                <mxCell id="UJ6no4YONDaqZgK9Tx4c-9" value="" style="endArrow=classic;html=1;rounded=0;exitX=0;exitY=0.5;exitDx=0;exitDy=0;entryX=1;entryY=0.5;entryDx=0;entryDy=0;" parent="1" source="UJ6no4YONDaqZgK9Tx4c-1" target="UJ6no4YONDaqZgK9Tx4c-4" edge="1">
                    <mxGeometry width="50" height="50" relative="1" as="geometry">
                        <mxPoint x="370" y="580" as="sourcePoint"/>
                        <mxPoint x="420" y="530" as="targetPoint"/>
                    </mxGeometry>
                </mxCell>
                <mxCell id="UJ6no4YONDaqZgK9Tx4c-10" value="" style="endArrow=classic;html=1;rounded=0;entryX=1;entryY=0.5;entryDx=0;entryDy=0;exitX=0;exitY=0.5;exitDx=0;exitDy=0;" parent="1" source="UJ6no4YONDaqZgK9Tx4c-1" target="UJ6no4YONDaqZgK9Tx4c-5" edge="1">
                    <mxGeometry width="50" height="50" relative="1" as="geometry">
                        <mxPoint x="200" y="555" as="sourcePoint"/>
                        <mxPoint x="140" y="400" as="targetPoint"/>
                    </mxGeometry>
                </mxCell>
                <mxCell id="UJ6no4YONDaqZgK9Tx4c-11" value="" style="endArrow=classic;html=1;rounded=0;exitX=0;exitY=0.5;exitDx=0;exitDy=0;entryX=1;entryY=0.5;entryDx=0;entryDy=0;" parent="1" source="UJ6no4YONDaqZgK9Tx4c-1" target="UJ6no4YONDaqZgK9Tx4c-6" edge="1">
                    <mxGeometry width="50" height="50" relative="1" as="geometry">
                        <mxPoint x="190" y="540" as="sourcePoint"/>
                        <mxPoint x="240" y="490" as="targetPoint"/>
                    </mxGeometry>
                </mxCell>
                <mxCell id="UJ6no4YONDaqZgK9Tx4c-12" value="" style="endArrow=classic;html=1;rounded=0;exitX=0;exitY=0.5;exitDx=0;exitDy=0;entryX=1;entryY=0.5;entryDx=0;entryDy=0;" parent="1" source="UJ6no4YONDaqZgK9Tx4c-1" target="UJ6no4YONDaqZgK9Tx4c-8" edge="1">
                    <mxGeometry width="50" height="50" relative="1" as="geometry">
                        <mxPoint x="240" y="620" as="sourcePoint"/>
                        <mxPoint x="290" y="570" as="targetPoint"/>
                    </mxGeometry>
                </mxCell>
                <mxCell id="UJ6no4YONDaqZgK9Tx4c-16" value="Iterable[Instruction]" style="rounded=0;whiteSpace=wrap;html=1;" parent="1" vertex="1">
                    <mxGeometry x="500" y="515" width="110" height="60" as="geometry"/>
                </mxCell>
            </root>
        </mxGraphModel>
    </diagram>
</mxfile>